<svg viewBox="0 0 865 280" fill="none" xmlns="http://www.w3.org/2000/svg">
<rect x="68.4581" width="14.8018" height="29.6035" rx="2" fill="#D4D4D4"/>
<rect x="100.529" width="14.8018" height="29.6035" rx="2" fill="#D4D4D4"/>
<rect x="132.599" width="14.8018" height="29.6035" rx="2" fill="#D4D4D4"/>
<rect x="164.67" y="1.23352" width="14.8018" height="29.6035" rx="2" fill="#D4D4D4"/>
<rect x="196.74" y="1.23352" width="14.8018" height="29.6035" rx="2" fill="#D4D4D4"/>
<rect x="68.4581" y="249.163" width="14.8018" height="29.6035" rx="2" fill="#D4D4D4"/>
<rect x="100.529" y="249.163" width="14.8018" height="29.6035" rx="2" fill="#D4D4D4"/>
<rect x="132.599" y="249.163" width="14.8018" height="29.6035" rx="2" fill="#D4D4D4"/>
<rect x="164.67" y="250.396" width="14.8018" height="29.6035" rx="2" fill="#D4D4D4"/>
<rect x="196.74" y="250.396" width="14.8018" height="29.6035" rx="2" fill="#D4D4D4"/>
<rect x="280" y="68.458" width="14.8018" height="29.6035" rx="2" transform="rotate(90 280 68.458)" fill="#D4D4D4"/>
<rect x="280" y="100.529" width="14.8018" height="29.6035" rx="2" transform="rotate(90 280 100.529)" fill="#D4D4D4"/>
<rect x="280" y="132.599" width="14.8018" height="29.6035" rx="2" transform="rotate(90 280 132.599)" fill="#D4D4D4"/>
<rect x="278.766" y="164.67" width="14.8018" height="29.6035" rx="2" transform="rotate(90 278.766 164.67)" fill="#D4D4D4"/>
<rect x="278.766" y="196.74" width="14.8018" height="29.6035" rx="2" transform="rotate(90 278.766 196.74)" fill="#D4D4D4"/>
<rect x="30.837" y="68.458" width="14.8018" height="29.6035" rx="2" transform="rotate(90 30.837 68.458)" fill="#D4D4D4"/>
<rect x="30.837" y="100.529" width="14.8018" height="29.6035" rx="2" transform="rotate(90 30.837 100.529)" fill="#D4D4D4"/>
<rect x="30.837" y="132.599" width="14.8018" height="29.6035" rx="2" transform="rotate(90 30.837 132.599)" fill="#D4D4D4"/>
<rect x="29.6035" y="164.67" width="14.8018" height="29.6035" rx="2" transform="rotate(90 29.6035 164.67)" fill="#D4D4D4"/>
<rect x="29.6035" y="196.74" width="14.8018" height="29.6035" rx="2" transform="rotate(90 29.6035 196.74)" fill="#D4D4D4"/>
<rect x="43.7886" y="43.1718" width="192.423" height="192.423" rx="15" fill="#D4D4D4"/>
<path d="M181.938 75.2424H112.247L99.9119 98.0618H143.7L105.463 154.802H137.533L112.247 211.542L181.938 132.599H150.485L181.938 86.3438V75.2424Z" fill="#F97901"/>
<path d="M809.658 138.924C812.033 135.987 814.171 133.453 816.071 131.323C818.05 129.12 819.673 127.211 820.94 125.595C823.711 122.07 825.097 119.61 825.097 118.215C825.097 116.82 824.701 115.828 823.909 115.241C823.117 114.653 822.088 114.139 820.821 113.699C819.634 113.258 818.327 112.854 816.902 112.487C815.477 112.12 814.171 111.716 812.983 111.275V104.336H860.843V110.394C859.735 111.128 858.508 111.679 857.162 112.046C855.895 112.414 854.51 112.817 853.005 113.258C849.284 114.36 846.632 115.681 845.048 117.224C843.465 118.766 842.198 119.977 841.248 120.859C840.298 121.74 839.427 122.621 838.635 123.502L817.258 147.736L809.658 138.924ZM792.2 175.495C786.975 181.664 782.818 186.658 779.73 190.476C776.642 194.295 775.099 196.939 775.099 198.407C775.099 199.803 775.534 200.868 776.405 201.602C777.276 202.263 778.305 202.85 779.493 203.364C780.759 203.805 782.066 204.209 783.412 204.576C784.837 204.943 786.104 205.457 787.212 206.118V212.397H737.927V206.118C739.589 205.164 741.331 204.466 743.152 204.025C744.973 203.511 746.952 202.777 749.09 201.822C754.315 199.472 759.422 195.47 764.41 189.815L784.837 166.573L792.2 175.495ZM812.983 189.595C809.024 184.822 805.105 180.085 801.226 175.385C797.425 170.612 793.506 165.875 789.469 161.175L757.878 121.96C753.92 116.893 749.486 113.772 744.577 112.597C743.231 112.23 741.846 111.716 740.42 111.055V104.336H796.832V111.275C795.723 111.789 794.456 112.193 793.031 112.487C791.685 112.707 790.419 112.964 789.231 113.258C786.46 113.919 785.074 115.094 785.074 116.783C785.074 118.472 787.252 122.07 791.606 127.578C795.961 133.086 799.167 137.051 801.226 139.475C806.372 145.643 810.172 150.16 812.627 153.024L846.355 194.993C848.967 198.297 851.659 200.537 854.43 201.712C857.201 202.887 859.3 203.695 860.725 204.135C862.229 204.576 863.654 205.237 865 206.118V212.397H805.857V206.339C807.203 205.678 808.629 205.127 810.133 204.686C811.637 204.246 813.023 203.805 814.289 203.364C817.14 202.336 818.565 200.978 818.565 199.289C818.565 197.526 816.665 194.295 812.864 189.595H812.983Z" fill="#D4D4D4"/>
<path d="M706.099 100.7V192.679C706.099 196.131 707.722 198.628 710.968 200.17C712.472 200.904 714.095 201.565 715.837 202.153C717.579 202.667 719.281 203.364 720.944 204.246V210.084H665.72V204.246C667.383 203.364 669.085 202.667 670.827 202.153C672.648 201.565 674.31 200.904 675.815 200.17C679.14 198.628 680.803 196.131 680.803 192.679V118.986C680.803 115.094 679.219 112.414 676.052 110.945C674.627 110.284 673.004 109.77 671.183 109.403C669.362 108.962 667.541 108.301 665.72 107.42V101.361L706.099 100.7Z" fill="#D4D4D4"/>
<path d="M680.803 56.3081C677.873 58.8784 676.409 62.2931 676.409 66.5524C676.409 70.7383 677.873 74.1164 680.803 76.6866C683.732 79.2569 687.493 80.542 692.085 80.542C696.756 80.542 700.557 79.2569 703.486 76.6866C706.495 74.0429 707.999 70.6649 707.999 66.5524C707.999 62.3666 706.495 58.9518 703.486 56.3081C702.061 55.0597 700.359 54.105 698.379 53.4441C696.479 52.7097 693.787 52.3425 690.304 52.3425C686.899 52.3425 683.732 53.6644 680.803 56.3081Z" fill="#F97901"/>
<path d="M634.249 53.224V193.01C634.249 196.461 635.872 198.958 639.118 200.5C640.543 201.235 642.126 201.896 643.868 202.483C645.689 202.997 647.471 203.695 649.213 204.576V210.414H593.87V204.576C595.533 203.695 597.235 202.997 598.977 202.483C600.798 201.896 602.421 201.235 603.846 200.5C607.171 198.885 608.834 196.388 608.834 193.01V71.6198C608.834 68.1683 607.132 65.598 603.727 63.909C602.223 63.1746 600.56 62.5504 598.739 62.0363C596.918 61.5223 595.177 60.8247 593.514 59.9434V53.224H634.249Z" fill="#D4D4D4"/>
<path d="M546.841 170.428C549.454 163.525 551.869 157.21 554.085 151.482C556.381 145.68 558.4 140.54 560.142 136.06C563.863 126.513 565.724 120.565 565.724 118.215C565.724 115.792 565.289 114.249 564.418 113.589C563.547 112.854 562.438 112.303 561.092 111.936C559.826 111.496 558.4 111.128 556.817 110.835C555.233 110.468 553.729 109.953 552.304 109.293V102.573H594.345V109.293C593.078 110.027 591.772 110.578 590.426 110.945C589.159 111.312 587.932 111.716 586.745 112.157C583.894 113.332 581.915 115.314 580.807 118.105L553.61 184.748L546.841 170.428ZM501 226.056C502.108 227.011 502.979 228.112 503.612 229.361C504.246 230.683 504.562 232.408 504.562 234.538C504.562 236.668 503.177 239.091 500.406 241.808C501.593 243.277 503.137 244.011 505.037 244.011C509.788 244.011 514.301 241.147 518.576 235.419C522.931 229.765 526.771 221.723 530.096 211.295L489.361 117.003C488.015 113.772 484.65 111.569 479.266 110.394C478 110.1 476.812 109.733 475.704 109.293V102.573H530.096V109.072C528.433 109.66 526.771 110.174 525.108 110.614C523.445 110.982 521.941 111.422 520.595 111.936C517.507 112.964 515.963 114.36 515.963 116.122C515.963 117.15 517.586 121.593 520.833 129.451L520.951 129.561C525.702 140.65 530.373 151.702 534.965 162.717C539.636 173.659 544.347 184.638 549.098 195.654L535.203 229.14C527.523 247.059 516.082 256.018 500.881 256.018C490.588 256.018 483.7 252.273 480.217 244.782C479.108 242.359 478.554 239.311 478.554 235.64C478.554 231.968 479.86 228.957 482.473 226.607C485.165 224.257 487.936 223.082 490.786 223.082C493.636 223.082 495.774 223.339 497.199 223.853C498.624 224.441 499.891 225.175 501 226.056Z" fill="#D4D4D4"/>
<path d="M407.535 200.39C418.303 200.39 427.566 199.876 435.325 198.848C443.163 197.746 448.824 196.278 452.308 194.442C455.871 192.606 458.8 190.44 461.096 187.943C463.392 185.446 465.213 182.692 466.559 179.681C467.905 176.67 469.132 173.659 470.241 170.649C473.249 161.983 475.704 156.402 477.604 153.905H485.917V210.084H401.597L407.535 200.39ZM370.601 51.9021C375.905 53.0036 382.239 53.5544 389.602 53.5544H445.42L439.482 63.248C421.905 63.248 409.91 64.6066 403.497 67.3237C396.609 70.2612 391.7 74.6673 388.771 80.5422C386.95 83.9937 385.169 88.2163 383.427 93.21C381.685 98.1302 380.062 101.582 378.558 103.564H370.601V51.9021ZM456.227 53.5544H483.779V61.816L389.721 210.084H363V199.95L456.227 53.5544Z" fill="#D4D4D4"/>
</svg>
